<svg width="170" height="45" viewBox="0 0 170 45" fill="none" xmlns="http://www.w3.org/2000/svg">
<path d="M0 0H170V45H7C3.13401 45 0 41.866 0 38V0Z" fill="#D9D9D9"/>
<path d="M0 31H14V45H7C3.13401 45 0 41.866 0 38V31Z" fill="#A7A3A3"/>
<path d="M50.0781 17.6543H52.0215V30.291H59.2871V32H50.0781V17.6543ZM65.332 21.3066C66.0742 21.3066 66.7936 21.4824 67.4902 21.834C68.1868 22.179 68.7174 22.6283 69.082 23.1816C69.4336 23.709 69.668 24.3242 69.7852 25.0273C69.8893 25.5091 69.9414 26.2773 69.9414 27.332H62.2754C62.3079 28.3932 62.5586 29.2461 63.0273 29.8906C63.4961 30.5286 64.222 30.8477 65.2051 30.8477C66.123 30.8477 66.8555 30.5449 67.4023 29.9395C67.7148 29.5879 67.9362 29.181 68.0664 28.7188H69.7949C69.7493 29.1029 69.5964 29.5326 69.3359 30.0078C69.082 30.4766 68.7956 30.8607 68.4766 31.1602C67.9427 31.681 67.2819 32.0326 66.4941 32.2148C66.071 32.319 65.5924 32.3711 65.0586 32.3711C63.7565 32.3711 62.653 31.8991 61.748 30.9551C60.8431 30.0046 60.3906 28.6764 60.3906 26.9707C60.3906 25.291 60.8464 23.9271 61.7578 22.8789C62.6693 21.8307 63.8607 21.3066 65.332 21.3066ZM68.1348 25.9355C68.0632 25.1738 67.8971 24.5651 67.6367 24.1094C67.1549 23.263 66.3509 22.8398 65.2246 22.8398C64.4173 22.8398 63.7402 23.1328 63.1934 23.7188C62.6465 24.2982 62.3568 25.0371 62.3242 25.9355H68.1348ZM73.457 29.2168C73.457 29.7246 73.6426 30.125 74.0137 30.418C74.3848 30.7109 74.8242 30.8574 75.332 30.8574C75.9505 30.8574 76.5495 30.7142 77.1289 30.4277C78.1055 29.9525 78.5938 29.1745 78.5938 28.0938V26.6777C78.3789 26.8145 78.1022 26.9284 77.7637 27.0195C77.4251 27.1107 77.0931 27.1758 76.7676 27.2148L75.7031 27.3516C75.0651 27.4362 74.5866 27.5697 74.2676 27.752C73.7272 28.0579 73.457 28.5462 73.457 29.2168ZM77.7148 25.6621C78.1185 25.61 78.3887 25.4408 78.5254 25.1543C78.6035 24.998 78.6426 24.7734 78.6426 24.4805C78.6426 23.8815 78.4277 23.4486 77.998 23.1816C77.5749 22.9082 76.9661 22.7715 76.1719 22.7715C75.2539 22.7715 74.6029 23.0189 74.2188 23.5137C74.0039 23.7871 73.8639 24.194 73.7988 24.7344H72.1582C72.1908 23.4453 72.6074 22.5501 73.4082 22.0488C74.2155 21.541 75.1497 21.2871 76.2109 21.2871C77.4414 21.2871 78.4408 21.5215 79.209 21.9902C79.9707 22.459 80.3516 23.1882 80.3516 24.1777V30.2031C80.3516 30.3854 80.3874 30.5319 80.459 30.6426C80.5371 30.7533 80.6966 30.8086 80.9375 30.8086C81.0156 30.8086 81.1035 30.8053 81.2012 30.7988C81.2988 30.7858 81.403 30.7695 81.5137 30.75V32.0488C81.2402 32.127 81.0319 32.1758 80.8887 32.1953C80.7454 32.2148 80.5501 32.2246 80.3027 32.2246C79.6973 32.2246 79.2578 32.0098 78.9844 31.5801C78.8411 31.3522 78.7402 31.0299 78.6816 30.6133C78.3236 31.082 77.8092 31.4889 77.1387 31.834C76.4681 32.179 75.7292 32.3516 74.9219 32.3516C73.9518 32.3516 73.1576 32.0586 72.5391 31.4727C71.9271 30.8802 71.6211 30.1413 71.6211 29.2559C71.6211 28.2858 71.9238 27.5339 72.5293 27C73.1348 26.4661 73.929 26.1374 74.9121 26.0137L77.7148 25.6621ZM83.5938 18.6211H85.3711V21.541H87.041V22.9766H85.3711V29.8027C85.3711 30.1673 85.4948 30.4115 85.7422 30.5352C85.8789 30.6068 86.1068 30.6426 86.4258 30.6426C86.5104 30.6426 86.6016 30.6426 86.6992 30.6426C86.7969 30.6361 86.9108 30.6263 87.041 30.6133V32C86.8392 32.0586 86.6276 32.1009 86.4062 32.127C86.1914 32.153 85.957 32.166 85.7031 32.166C84.8828 32.166 84.3262 31.9577 84.0332 31.541C83.7402 31.1178 83.5938 30.571 83.5938 29.9004V22.9766H82.1777V21.541H83.5938V18.6211ZM88.8086 17.6055H90.5664V22.957C90.9831 22.4297 91.3574 22.0586 91.6895 21.8438C92.2559 21.4727 92.9622 21.2871 93.8086 21.2871C95.3255 21.2871 96.3542 21.8177 96.8945 22.8789C97.1875 23.4583 97.334 24.2624 97.334 25.291V32H95.5273V25.4082C95.5273 24.64 95.4297 24.0768 95.2344 23.7188C94.9154 23.1458 94.3164 22.8594 93.4375 22.8594C92.7083 22.8594 92.0475 23.11 91.4551 23.6113C90.8626 24.1126 90.5664 25.0599 90.5664 26.4531V32H88.8086V17.6055ZM104.297 21.3066C105.039 21.3066 105.758 21.4824 106.455 21.834C107.152 22.179 107.682 22.6283 108.047 23.1816C108.398 23.709 108.633 24.3242 108.75 25.0273C108.854 25.5091 108.906 26.2773 108.906 27.332H101.24C101.273 28.3932 101.523 29.2461 101.992 29.8906C102.461 30.5286 103.187 30.8477 104.17 30.8477C105.088 30.8477 105.82 30.5449 106.367 29.9395C106.68 29.5879 106.901 29.181 107.031 28.7188H108.76C108.714 29.1029 108.561 29.5326 108.301 30.0078C108.047 30.4766 107.76 30.8607 107.441 31.1602C106.908 31.681 106.247 32.0326 105.459 32.2148C105.036 32.319 104.557 32.3711 104.023 32.3711C102.721 32.3711 101.618 31.8991 100.713 30.9551C99.8079 30.0046 99.3555 28.6764 99.3555 26.9707C99.3555 25.291 99.8112 23.9271 100.723 22.8789C101.634 21.8307 102.826 21.3066 104.297 21.3066ZM107.1 25.9355C107.028 25.1738 106.862 24.5651 106.602 24.1094C106.12 23.263 105.316 22.8398 104.189 22.8398C103.382 22.8398 102.705 23.1328 102.158 23.7188C101.611 24.2982 101.322 25.0371 101.289 25.9355H107.1ZM111.123 21.541H112.793V23.3477C112.93 22.9961 113.265 22.5697 113.799 22.0684C114.333 21.5605 114.948 21.3066 115.645 21.3066C115.677 21.3066 115.732 21.3099 115.811 21.3164C115.889 21.3229 116.022 21.3359 116.211 21.3555V23.2109C116.107 23.1914 116.009 23.1784 115.918 23.1719C115.833 23.1654 115.739 23.1621 115.635 23.1621C114.749 23.1621 114.069 23.4486 113.594 24.0215C113.118 24.5879 112.881 25.2422 112.881 25.9844V32H111.123V21.541ZM118.779 28.7188C118.831 29.3047 118.978 29.7539 119.219 30.0664C119.661 30.6328 120.43 30.916 121.523 30.916C122.174 30.916 122.747 30.776 123.242 30.4961C123.737 30.2096 123.984 29.7702 123.984 29.1777C123.984 28.7285 123.786 28.3867 123.389 28.1523C123.135 28.0091 122.633 27.8431 121.885 27.6543L120.488 27.3027C119.596 27.0814 118.939 26.834 118.516 26.5605C117.76 26.0853 117.383 25.4277 117.383 24.5879C117.383 23.5983 117.738 22.7975 118.447 22.1855C119.163 21.5736 120.124 21.2676 121.328 21.2676C122.904 21.2676 124.04 21.7298 124.736 22.6543C125.173 23.2402 125.384 23.8717 125.371 24.5488H123.711C123.678 24.1517 123.538 23.7904 123.291 23.4648C122.887 23.0026 122.188 22.7715 121.191 22.7715C120.527 22.7715 120.023 22.8984 119.678 23.1523C119.339 23.4062 119.17 23.7415 119.17 24.1582C119.17 24.6139 119.395 24.9785 119.844 25.252C120.104 25.4147 120.488 25.5579 120.996 25.6816L122.158 25.9648C123.421 26.2708 124.268 26.5671 124.697 26.8535C125.381 27.3027 125.723 28.0091 125.723 28.9727C125.723 29.9036 125.368 30.7077 124.658 31.3848C123.955 32.0618 122.881 32.4004 121.436 32.4004C119.88 32.4004 118.776 32.0488 118.125 31.3457C117.48 30.6361 117.135 29.7604 117.09 28.7188H118.779Z" fill="black"/>
</svg>
