<svg width="150" height="47" viewBox="0 0 150 47" fill="none" xmlns="http://www.w3.org/2000/svg">
<path d="M0 0H150V47H7C3.13401 47 0 43.866 0 40V0Z" fill="#D9D9D9"/>
<path d="M0 33H16V47H7C3.13401 47 0 43.866 0 40V33Z" fill="#C2B8B8"/>
<path d="M29.2656 12.7266H32.875V26.8945H41.4297V30H29.2656V12.7266ZM48.707 19.6406C47.9336 19.6406 47.332 19.8828 46.9023 20.3672C46.4805 20.8516 46.2148 21.5078 46.1055 22.3359H51.2969C51.2422 21.4531 50.9727 20.7852 50.4883 20.332C50.0117 19.8711 49.418 19.6406 48.707 19.6406ZM48.707 16.8867C49.7695 16.8867 50.7266 17.0859 51.5781 17.4844C52.4297 17.8828 53.1328 18.5117 53.6875 19.3711C54.1875 20.1289 54.5117 21.0078 54.6602 22.0078C54.7461 22.5938 54.7812 23.4375 54.7656 24.5391H46.0234C46.0703 25.8203 46.4727 26.7188 47.2305 27.2344C47.6914 27.5547 48.2461 27.7148 48.8945 27.7148C49.582 27.7148 50.1406 27.5195 50.5703 27.1289C50.8047 26.918 51.0117 26.625 51.1914 26.25H54.6016C54.5156 27.0078 54.1211 27.7773 53.418 28.5586C52.3242 29.8008 50.793 30.4219 48.8242 30.4219C47.1992 30.4219 45.7656 29.8984 44.5234 28.8516C43.2812 27.8047 42.6602 26.1016 42.6602 23.7422C42.6602 21.5312 43.2188 19.8359 44.3359 18.6562C45.4609 17.4766 46.918 16.8867 48.707 16.8867ZM64.0703 23.7891C63.8594 23.9219 63.6445 24.0312 63.4258 24.1172C63.2148 24.1953 62.9219 24.2695 62.5469 24.3398L61.7969 24.4805C61.0938 24.6055 60.5898 24.7578 60.2852 24.9375C59.7695 25.2422 59.5117 25.7148 59.5117 26.3555C59.5117 26.9258 59.668 27.3398 59.9805 27.5977C60.3008 27.8477 60.6875 27.9727 61.1406 27.9727C61.8594 27.9727 62.5195 27.7617 63.1211 27.3398C63.7305 26.918 64.0469 26.1484 64.0703 25.0312V23.7891ZM62.043 22.2305C62.6602 22.1523 63.1016 22.0547 63.3672 21.9375C63.8438 21.7344 64.082 21.418 64.082 20.9883C64.082 20.4648 63.8984 20.1055 63.5312 19.9102C63.1719 19.707 62.6406 19.6055 61.9375 19.6055C61.1484 19.6055 60.5898 19.8008 60.2617 20.1914C60.0273 20.4805 59.8711 20.8711 59.793 21.3633H56.5703C56.6406 20.2461 56.9531 19.3281 57.5078 18.6094C58.3906 17.4844 59.9062 16.9219 62.0547 16.9219C63.4531 16.9219 64.6953 17.1992 65.7812 17.7539C66.8672 18.3086 67.4102 19.3555 67.4102 20.8945V26.7539C67.4102 27.1602 67.418 27.6523 67.4336 28.2305C67.457 28.668 67.5234 28.9648 67.6328 29.1211C67.7422 29.2773 67.9062 29.4062 68.125 29.5078V30H64.4922C64.3906 29.7422 64.3203 29.5 64.2812 29.2734C64.2422 29.0469 64.2109 28.7891 64.1875 28.5C63.7266 29 63.1953 29.4258 62.5938 29.7773C61.875 30.1914 61.0625 30.3984 60.1562 30.3984C59 30.3984 58.043 30.0703 57.2852 29.4141C56.5352 28.75 56.1602 27.8125 56.1602 26.6016C56.1602 25.0312 56.7656 23.8945 57.9766 23.1914C58.6406 22.8086 59.6172 22.5352 60.9062 22.3711L62.043 22.2305ZM69.0742 19.7227V17.3438H70.8555V13.7812H74.1602V17.3438H76.2344V19.7227H74.1602V26.4727C74.1602 26.9961 74.2266 27.3242 74.3594 27.457C74.4922 27.582 74.8984 27.6445 75.5781 27.6445C75.6797 27.6445 75.7852 27.6445 75.8945 27.6445C76.0117 27.6367 76.125 27.6289 76.2344 27.6211V30.1172L74.6523 30.1758C73.0742 30.2305 71.9961 29.957 71.418 29.3555C71.043 28.9727 70.8555 28.3828 70.8555 27.5859V19.7227H69.0742ZM85.4219 16.8984C86.2109 16.8984 86.9258 17.0352 87.5664 17.3086C88.2148 17.582 88.7461 18 89.1602 18.5625C89.5117 19.0391 89.7266 19.5312 89.8047 20.0391C89.8828 20.5391 89.9219 21.3594 89.9219 22.5V30H86.5117V22.2305C86.5117 21.543 86.3945 20.9883 86.1602 20.5664C85.8555 19.9727 85.2773 19.6758 84.4258 19.6758C83.543 19.6758 82.8711 19.9727 82.4102 20.5664C81.957 21.1523 81.7305 21.9922 81.7305 23.0859V30H78.4023V12.7852H81.7305V18.8906C82.2148 18.1484 82.7734 17.6328 83.4062 17.3438C84.0469 17.0469 84.7188 16.8984 85.4219 16.8984ZM98.0898 19.6406C97.3164 19.6406 96.7148 19.8828 96.2852 20.3672C95.8633 20.8516 95.5977 21.5078 95.4883 22.3359H100.68C100.625 21.4531 100.355 20.7852 99.8711 20.332C99.3945 19.8711 98.8008 19.6406 98.0898 19.6406ZM98.0898 16.8867C99.1523 16.8867 100.109 17.0859 100.961 17.4844C101.812 17.8828 102.516 18.5117 103.07 19.3711C103.57 20.1289 103.895 21.0078 104.043 22.0078C104.129 22.5938 104.164 23.4375 104.148 24.5391H95.4062C95.4531 25.8203 95.8555 26.7188 96.6133 27.2344C97.0742 27.5547 97.6289 27.7148 98.2773 27.7148C98.9648 27.7148 99.5234 27.5195 99.9531 27.1289C100.188 26.918 100.395 26.625 100.574 26.25H103.984C103.898 27.0078 103.504 27.7773 102.801 28.5586C101.707 29.8008 100.176 30.4219 98.207 30.4219C96.582 30.4219 95.1484 29.8984 93.9062 28.8516C92.6641 27.8047 92.043 26.1016 92.043 23.7422C92.043 21.5312 92.6016 19.8359 93.7188 18.6562C94.8438 17.4766 96.3008 16.8867 98.0898 16.8867ZM113.348 16.9219C113.41 16.9219 113.461 16.9258 113.5 16.9336C113.547 16.9336 113.645 16.9375 113.793 16.9453V20.3672C113.582 20.3438 113.395 20.3281 113.23 20.3203C113.066 20.3125 112.934 20.3086 112.832 20.3086C111.488 20.3086 110.586 20.7461 110.125 21.6211C109.867 22.1133 109.738 22.8711 109.738 23.8945V30H106.375V17.2266H109.562V19.4531C110.078 18.6016 110.527 18.0195 110.91 17.707C111.535 17.1836 112.348 16.9219 113.348 16.9219ZM118.363 25.9219C118.434 26.5156 118.586 26.9375 118.82 27.1875C119.234 27.6328 120 27.8555 121.117 27.8555C121.773 27.8555 122.293 27.7578 122.676 27.5625C123.066 27.3672 123.262 27.0742 123.262 26.6836C123.262 26.3086 123.105 26.0234 122.793 25.8281C122.48 25.6328 121.32 25.2969 119.312 24.8203C117.867 24.4609 116.848 24.0117 116.254 23.4727C115.66 22.9414 115.363 22.1758 115.363 21.1758C115.363 19.9961 115.824 18.9844 116.746 18.1406C117.676 17.2891 118.98 16.8633 120.66 16.8633C122.254 16.8633 123.551 17.1836 124.551 17.8242C125.559 18.457 126.137 19.5547 126.285 21.1172H122.945C122.898 20.6875 122.777 20.3477 122.582 20.0977C122.215 19.6445 121.59 19.418 120.707 19.418C119.98 19.418 119.461 19.5312 119.148 19.7578C118.844 19.9844 118.691 20.25 118.691 20.5547C118.691 20.9375 118.855 21.2148 119.184 21.3867C119.512 21.5664 120.672 21.875 122.664 22.3125C123.992 22.625 124.988 23.0977 125.652 23.7305C126.309 24.3711 126.637 25.1719 126.637 26.1328C126.637 27.3984 126.164 28.4336 125.219 29.2383C124.281 30.0352 122.828 30.4336 120.859 30.4336C118.852 30.4336 117.367 30.0117 116.406 29.168C115.453 28.3164 114.977 27.2344 114.977 25.9219H118.363Z" fill="#111010"/>
</svg>
