<svg width="150" height="47" viewBox="0 0 150 47" fill="none" xmlns="http://www.w3.org/2000/svg">
<path d="M0 0H150V47H7C3.13401 47 0 43.866 0 40V0Z" fill="#D9D9D9"/>
<path d="M0 33H16V47H7C3.13401 47 0 43.866 0 40V33Z" fill="#C2B8B8"/>
<path d="M41.4375 17.6055H44.4453V29.4121H51.5742V32H41.4375V17.6055ZM56.3008 20.0859H53.4785V17.5176H56.3008V20.0859ZM53.4785 21.3555H56.3008V32H53.4785V21.3555ZM64.9043 21.1016C66.0046 21.1016 66.903 21.3913 67.5996 21.9707C68.3027 22.5436 68.6543 23.4974 68.6543 24.832V32H65.8027V25.5254C65.8027 24.9655 65.7279 24.5358 65.5781 24.2363C65.3047 23.6895 64.7839 23.416 64.0156 23.416C63.0716 23.416 62.4238 23.8164 62.0723 24.6172C61.89 25.0404 61.7988 25.5807 61.7988 26.2383V32H59.0254V21.375H61.7109V22.9277C62.069 22.3809 62.4076 21.987 62.7266 21.7461C63.2995 21.3164 64.0254 21.1016 64.9043 21.1016ZM74.0938 20.0859H71.2715V17.5176H74.0938V20.0859ZM71.2715 21.3555H74.0938V32H71.2715V21.3555ZM82.6973 21.1016C83.7975 21.1016 84.696 21.3913 85.3926 21.9707C86.0957 22.5436 86.4473 23.4974 86.4473 24.832V32H83.5957V25.5254C83.5957 24.9655 83.5208 24.5358 83.3711 24.2363C83.0977 23.6895 82.5768 23.416 81.8086 23.416C80.8646 23.416 80.2168 23.8164 79.8652 24.6172C79.6829 25.0404 79.5918 25.5807 79.5918 26.2383V32H76.8184V21.375H79.5039V22.9277C79.862 22.3809 80.2005 21.987 80.5195 21.7461C81.0924 21.3164 81.8184 21.1016 82.6973 21.1016ZM93.5957 29.7148C94.2467 29.7148 94.7969 29.4707 95.2461 28.9824C95.6953 28.4876 95.9199 27.7031 95.9199 26.6289C95.9199 25.6198 95.7051 24.8516 95.2754 24.3242C94.8522 23.7969 94.2826 23.5332 93.5664 23.5332C92.5898 23.5332 91.916 23.9922 91.5449 24.9102C91.3496 25.3984 91.252 26.0007 91.252 26.7168C91.252 27.3353 91.3561 27.8854 91.5645 28.3672C91.9421 29.2656 92.6191 29.7148 93.5957 29.7148ZM92.9023 21.1016C93.4362 21.1016 93.9017 21.1829 94.2988 21.3457C94.9759 21.6257 95.5228 22.14 95.9395 22.8887V21.3555H98.6445V31.4531C98.6445 32.8268 98.4134 33.862 97.9512 34.5586C97.1569 35.7565 95.6335 36.3555 93.3809 36.3555C92.0202 36.3555 90.9102 36.0885 90.0508 35.5547C89.1914 35.0208 88.7161 34.2233 88.625 33.1621H91.6523C91.7305 33.4876 91.8574 33.722 92.0332 33.8652C92.3327 34.1191 92.8372 34.2461 93.5469 34.2461C94.5495 34.2461 95.2201 33.9108 95.5586 33.2402C95.7799 32.8105 95.8906 32.0879 95.8906 31.0723V30.3887C95.6237 30.8444 95.3372 31.1862 95.0312 31.4141C94.4779 31.8372 93.7585 32.0488 92.873 32.0488C91.5059 32.0488 90.4121 31.5703 89.5918 30.6133C88.778 29.6497 88.3711 28.3477 88.3711 26.707C88.3711 25.125 88.765 23.7969 89.5527 22.7227C90.3405 21.6419 91.457 21.1016 92.9023 21.1016ZM103.42 28.6016C103.479 29.0964 103.605 29.4479 103.801 29.6562C104.146 30.0273 104.784 30.2129 105.715 30.2129C106.262 30.2129 106.695 30.1315 107.014 29.9688C107.339 29.806 107.502 29.5618 107.502 29.2363C107.502 28.9238 107.372 28.6862 107.111 28.5234C106.851 28.3607 105.884 28.0807 104.211 27.6836C103.007 27.3841 102.157 27.0098 101.662 26.5605C101.167 26.1178 100.92 25.4798 100.92 24.6465C100.92 23.6634 101.304 22.8203 102.072 22.1172C102.847 21.4076 103.934 21.0527 105.334 21.0527C106.662 21.0527 107.743 21.3197 108.576 21.8535C109.416 22.3809 109.898 23.2956 110.021 24.5977H107.238C107.199 24.2396 107.098 23.9564 106.936 23.748C106.63 23.3704 106.109 23.1816 105.373 23.1816C104.768 23.1816 104.335 23.276 104.074 23.4648C103.82 23.6536 103.693 23.875 103.693 24.1289C103.693 24.4479 103.83 24.679 104.104 24.8223C104.377 24.972 105.344 25.2292 107.004 25.5938C108.111 25.8542 108.941 26.248 109.494 26.7754C110.041 27.3092 110.314 27.9766 110.314 28.7773C110.314 29.832 109.921 30.6947 109.133 31.3652C108.352 32.0293 107.141 32.3613 105.5 32.3613C103.827 32.3613 102.59 32.0098 101.789 31.3066C100.995 30.597 100.598 29.6953 100.598 28.6016H103.42Z" fill="black"/>
</svg>
