<svg width="170" height="45" viewBox="0 0 170 45" fill="none" xmlns="http://www.w3.org/2000/svg">
<path d="M0 0H170V45H7C3.13401 45 0 41.866 0 38V0Z" fill="#D9D9D9"/>
<path d="M0 31H14V45H7C3.13401 45 0 41.866 0 38V31Z" fill="#A7A3A3"/>
<path d="M57.3047 17.6543H59.248V30.291H66.5137V32H57.3047V17.6543ZM68.2031 21.5898H69.9902V32H68.2031V21.5898ZM68.2031 17.6543H69.9902V19.6465H68.2031V17.6543ZM72.6562 21.541H74.3262V23.0254C74.821 22.4134 75.3451 21.974 75.8984 21.707C76.4518 21.4401 77.0671 21.3066 77.7441 21.3066C79.2285 21.3066 80.2311 21.8242 80.752 22.8594C81.0384 23.4258 81.1816 24.2363 81.1816 25.291V32H79.3945V25.4082C79.3945 24.7702 79.3001 24.2559 79.1113 23.8652C78.7988 23.2142 78.2324 22.8887 77.4121 22.8887C76.9954 22.8887 76.6536 22.931 76.3867 23.0156C75.9049 23.1589 75.4818 23.4453 75.1172 23.875C74.8242 24.2201 74.6322 24.5781 74.541 24.9492C74.4564 25.3138 74.4141 25.8379 74.4141 26.5215V32H72.6562V21.541ZM83.7891 21.5898H85.5762V32H83.7891V21.5898ZM83.7891 17.6543H85.5762V19.6465H83.7891V17.6543ZM88.2422 21.541H89.9121V23.0254C90.4069 22.4134 90.931 21.974 91.4844 21.707C92.0378 21.4401 92.653 21.3066 93.3301 21.3066C94.8145 21.3066 95.8171 21.8242 96.3379 22.8594C96.6243 23.4258 96.7676 24.2363 96.7676 25.291V32H94.9805V25.4082C94.9805 24.7702 94.8861 24.2559 94.6973 23.8652C94.3848 23.2142 93.8184 22.8887 92.998 22.8887C92.5814 22.8887 92.2396 22.931 91.9727 23.0156C91.4909 23.1589 91.0677 23.4453 90.7031 23.875C90.4102 24.2201 90.2181 24.5781 90.127 24.9492C90.0423 25.3138 90 25.8379 90 26.5215V32H88.2422V21.541ZM103.066 21.3555C103.887 21.3555 104.603 21.5573 105.215 21.9609C105.547 22.1888 105.885 22.5208 106.23 22.957V21.6387H107.852V31.1504C107.852 32.4785 107.656 33.5267 107.266 34.2949C106.536 35.7142 105.16 36.4238 103.135 36.4238C102.008 36.4238 101.061 36.1699 100.293 35.6621C99.5247 35.1608 99.0951 34.373 99.0039 33.2988H100.791C100.876 33.7676 101.045 34.1289 101.299 34.3828C101.696 34.7734 102.321 34.9688 103.174 34.9688C104.521 34.9688 105.404 34.4935 105.82 33.543C106.068 32.9831 106.182 31.9837 106.162 30.5449C105.811 31.0788 105.387 31.4759 104.893 31.7363C104.398 31.9967 103.743 32.127 102.93 32.127C101.797 32.127 100.804 31.7266 99.9512 30.9258C99.1048 30.1185 98.6816 28.7871 98.6816 26.9316C98.6816 25.1803 99.1081 23.8132 99.9609 22.8301C100.82 21.847 101.855 21.3555 103.066 21.3555ZM106.23 26.7266C106.23 25.431 105.964 24.4707 105.43 23.8457C104.896 23.2207 104.215 22.9082 103.389 22.9082C102.152 22.9082 101.305 23.4876 100.85 24.6465C100.609 25.265 100.488 26.0755 100.488 27.0781C100.488 28.2565 100.726 29.1549 101.201 29.7734C101.683 30.3854 102.327 30.6914 103.135 30.6914C104.398 30.6914 105.286 30.1217 105.801 28.9824C106.087 28.3379 106.23 27.5859 106.23 26.7266ZM111.553 28.7188C111.605 29.3047 111.751 29.7539 111.992 30.0664C112.435 30.6328 113.203 30.916 114.297 30.916C114.948 30.916 115.521 30.776 116.016 30.4961C116.51 30.2096 116.758 29.7702 116.758 29.1777C116.758 28.7285 116.559 28.3867 116.162 28.1523C115.908 28.0091 115.407 27.8431 114.658 27.6543L113.262 27.3027C112.37 27.0814 111.712 26.834 111.289 26.5605C110.534 26.0853 110.156 25.4277 110.156 24.5879C110.156 23.5983 110.511 22.7975 111.221 22.1855C111.937 21.5736 112.897 21.2676 114.102 21.2676C115.677 21.2676 116.813 21.7298 117.51 22.6543C117.946 23.2402 118.158 23.8717 118.145 24.5488H116.484C116.452 24.1517 116.312 23.7904 116.064 23.4648C115.661 23.0026 114.961 22.7715 113.965 22.7715C113.301 22.7715 112.796 22.8984 112.451 23.1523C112.113 23.4062 111.943 23.7415 111.943 24.1582C111.943 24.6139 112.168 24.9785 112.617 25.252C112.878 25.4147 113.262 25.5579 113.77 25.6816L114.932 25.9648C116.195 26.2708 117.041 26.5671 117.471 26.8535C118.154 27.3027 118.496 28.0091 118.496 28.9727C118.496 29.9036 118.141 30.7077 117.432 31.3848C116.729 32.0618 115.654 32.4004 114.209 32.4004C112.653 32.4004 111.549 32.0488 110.898 31.3457C110.254 30.6361 109.909 29.7604 109.863 28.7188H111.553Z" fill="black"/>
</svg>
