<svg width="170" height="45" viewBox="0 0 170 45" fill="none" xmlns="http://www.w3.org/2000/svg">
<path d="M0 0H170V45H7C3.13401 45 0 41.866 0 38V0Z" fill="#D9D9D9"/>
<path d="M0 31H14V45H7C3.13401 45 0 41.866 0 38V31Z" fill="#A7A3A3"/>
<path d="M20.7246 14.6543H27.1797C28.4557 14.6543 29.4844 15.0156 30.2656 15.7383C31.0469 16.4544 31.4375 17.4635 31.4375 18.7656C31.4375 19.8854 31.0892 20.862 30.3926 21.6953C29.696 22.5221 28.625 22.9355 27.1797 22.9355H22.668V29H20.7246V14.6543ZM29.4746 18.7754C29.4746 17.7207 29.084 17.0046 28.3027 16.627C27.873 16.4251 27.2839 16.3242 26.5352 16.3242H22.668V21.2949H26.5352C27.4076 21.2949 28.1139 21.1094 28.6543 20.7383C29.2012 20.3672 29.4746 19.7129 29.4746 18.7754ZM38 18.3066C38.7422 18.3066 39.4616 18.4824 40.1582 18.834C40.8548 19.179 41.3854 19.6283 41.75 20.1816C42.1016 20.709 42.3359 21.3242 42.4531 22.0273C42.5573 22.5091 42.6094 23.2773 42.6094 24.332H34.9434C34.9759 25.3932 35.2266 26.2461 35.6953 26.8906C36.1641 27.5286 36.89 27.8477 37.873 27.8477C38.791 27.8477 39.5234 27.5449 40.0703 26.9395C40.3828 26.5879 40.6042 26.181 40.7344 25.7188H42.4629C42.4173 26.1029 42.2643 26.5326 42.0039 27.0078C41.75 27.4766 41.4635 27.8607 41.1445 28.1602C40.6107 28.681 39.9499 29.0326 39.1621 29.2148C38.7389 29.319 38.2604 29.3711 37.7266 29.3711C36.4245 29.3711 35.321 28.8991 34.416 27.9551C33.5111 27.0046 33.0586 25.6764 33.0586 23.9707C33.0586 22.291 33.5143 20.9271 34.4258 19.8789C35.3372 18.8307 36.5286 18.3066 38 18.3066ZM40.8027 22.9355C40.7311 22.1738 40.5651 21.5651 40.3047 21.1094C39.8229 20.263 39.0189 19.8398 37.8926 19.8398C37.0853 19.8398 36.4082 20.1328 35.8613 20.7188C35.3145 21.2982 35.0247 22.0371 34.9922 22.9355H40.8027ZM44.8262 18.541H46.4961V20.3477C46.6328 19.9961 46.9681 19.5697 47.502 19.0684C48.0358 18.5605 48.651 18.3066 49.3477 18.3066C49.3802 18.3066 49.4355 18.3099 49.5137 18.3164C49.5918 18.3229 49.7253 18.3359 49.9141 18.3555V20.2109C49.8099 20.1914 49.7122 20.1784 49.6211 20.1719C49.5365 20.1654 49.4421 20.1621 49.3379 20.1621C48.4525 20.1621 47.7721 20.4486 47.2969 21.0215C46.8216 21.5879 46.584 22.2422 46.584 22.9844V29H44.8262V18.541ZM52.4824 25.7188C52.5345 26.3047 52.681 26.7539 52.9219 27.0664C53.3646 27.6328 54.1328 27.916 55.2266 27.916C55.8776 27.916 56.4505 27.776 56.9453 27.4961C57.4401 27.2096 57.6875 26.7702 57.6875 26.1777C57.6875 25.7285 57.4889 25.3867 57.0918 25.1523C56.8379 25.0091 56.3366 24.8431 55.5879 24.6543L54.1914 24.3027C53.2995 24.0814 52.6419 23.834 52.2188 23.5605C51.4635 23.0853 51.0859 22.4277 51.0859 21.5879C51.0859 20.5983 51.4408 19.7975 52.1504 19.1855C52.8665 18.5736 53.8268 18.2676 55.0312 18.2676C56.6068 18.2676 57.7428 18.7298 58.4395 19.6543C58.8757 20.2402 59.0872 20.8717 59.0742 21.5488H57.4141C57.3815 21.1517 57.2415 20.7904 56.9941 20.4648C56.5905 20.0026 55.8906 19.7715 54.8945 19.7715C54.2305 19.7715 53.7259 19.8984 53.3809 20.1523C53.0423 20.4062 52.873 20.7415 52.873 21.1582C52.873 21.6139 53.0977 21.9785 53.5469 22.252C53.8073 22.4147 54.1914 22.5579 54.6992 22.6816L55.8613 22.9648C57.1243 23.2708 57.9707 23.5671 58.4004 23.8535C59.084 24.3027 59.4258 25.0091 59.4258 25.9727C59.4258 26.9036 59.071 27.7077 58.3613 28.3848C57.6582 29.0618 56.584 29.4004 55.1387 29.4004C53.5827 29.4004 52.4792 29.0488 51.8281 28.3457C51.1836 27.6361 50.8385 26.7604 50.793 25.7188H52.4824ZM65.5879 27.8672C66.7533 27.8672 67.5508 27.4277 67.9805 26.5488C68.4167 25.6634 68.6348 24.6803 68.6348 23.5996C68.6348 22.623 68.4785 21.8288 68.166 21.2168C67.6712 20.2533 66.8184 19.7715 65.6074 19.7715C64.5332 19.7715 63.752 20.1816 63.2637 21.002C62.7754 21.8223 62.5312 22.8118 62.5312 23.9707C62.5312 25.084 62.7754 26.0117 63.2637 26.7539C63.752 27.4961 64.5267 27.8672 65.5879 27.8672ZM65.6562 18.2383C67.0039 18.2383 68.1432 18.6875 69.0742 19.5859C70.0052 20.4844 70.4707 21.806 70.4707 23.5508C70.4707 25.237 70.0605 26.6302 69.2402 27.7305C68.4199 28.8307 67.1471 29.3809 65.4219 29.3809C63.9831 29.3809 62.8405 28.8958 61.9941 27.9258C61.1478 26.9492 60.7246 25.6406 60.7246 24C60.7246 22.2422 61.1706 20.8424 62.0625 19.8008C62.9544 18.7591 64.1523 18.2383 65.6562 18.2383ZM72.5703 18.541H74.2402V20.0254C74.735 19.4134 75.2591 18.974 75.8125 18.707C76.3659 18.4401 76.9811 18.3066 77.6582 18.3066C79.1426 18.3066 80.1452 18.8242 80.666 19.8594C80.9525 20.4258 81.0957 21.2363 81.0957 22.291V29H79.3086V22.4082C79.3086 21.7702 79.2142 21.2559 79.0254 20.8652C78.7129 20.2142 78.1465 19.8887 77.3262 19.8887C76.9095 19.8887 76.5677 19.931 76.3008 20.0156C75.819 20.1589 75.3958 20.4453 75.0312 20.875C74.7383 21.2201 74.5462 21.5781 74.4551 21.9492C74.3704 22.3138 74.3281 22.8379 74.3281 23.5215V29H72.5703V18.541ZM85.0508 26.2168C85.0508 26.7246 85.2363 27.125 85.6074 27.418C85.9785 27.7109 86.418 27.8574 86.9258 27.8574C87.5443 27.8574 88.1432 27.7142 88.7227 27.4277C89.6992 26.9525 90.1875 26.1745 90.1875 25.0938V23.6777C89.9727 23.8145 89.696 23.9284 89.3574 24.0195C89.0189 24.1107 88.6868 24.1758 88.3613 24.2148L87.2969 24.3516C86.6589 24.4362 86.1803 24.5697 85.8613 24.752C85.321 25.0579 85.0508 25.5462 85.0508 26.2168ZM89.3086 22.6621C89.7122 22.61 89.9824 22.4408 90.1191 22.1543C90.1973 21.998 90.2363 21.7734 90.2363 21.4805C90.2363 20.8815 90.0215 20.4486 89.5918 20.1816C89.1686 19.9082 88.5599 19.7715 87.7656 19.7715C86.8477 19.7715 86.1966 20.0189 85.8125 20.5137C85.5977 20.7871 85.4577 21.194 85.3926 21.7344H83.752C83.7845 20.4453 84.2012 19.5501 85.002 19.0488C85.8092 18.541 86.7435 18.2871 87.8047 18.2871C89.0352 18.2871 90.0345 18.5215 90.8027 18.9902C91.5645 19.459 91.9453 20.1882 91.9453 21.1777V27.2031C91.9453 27.3854 91.9811 27.5319 92.0527 27.6426C92.1309 27.7533 92.2904 27.8086 92.5312 27.8086C92.6094 27.8086 92.6973 27.8053 92.7949 27.7988C92.8926 27.7858 92.9967 27.7695 93.1074 27.75V29.0488C92.834 29.127 92.6257 29.1758 92.4824 29.1953C92.3392 29.2148 92.1439 29.2246 91.8965 29.2246C91.291 29.2246 90.8516 29.0098 90.5781 28.5801C90.4349 28.3522 90.334 28.0299 90.2754 27.6133C89.9173 28.082 89.403 28.4889 88.7324 28.834C88.0618 29.179 87.3229 29.3516 86.5156 29.3516C85.5456 29.3516 84.7513 29.0586 84.1328 28.4727C83.5208 27.8802 83.2148 27.1413 83.2148 26.2559C83.2148 25.2858 83.5176 24.5339 84.123 24C84.7285 23.4661 85.5228 23.1374 86.5059 23.0137L89.3086 22.6621ZM94.8848 14.6543H96.6426V29H94.8848V14.6543ZM99.2891 18.5898H101.076V29H99.2891V18.5898ZM99.2891 14.6543H101.076V16.6465H99.2891V14.6543ZM102.961 27.6133L109.162 20.1133H103.42V18.541H111.525V19.9766L105.363 27.4277H111.711V29H102.961V27.6133ZM118.098 18.3066C118.84 18.3066 119.559 18.4824 120.256 18.834C120.952 19.179 121.483 19.6283 121.848 20.1816C122.199 20.709 122.434 21.3242 122.551 22.0273C122.655 22.5091 122.707 23.2773 122.707 24.332H115.041C115.074 25.3932 115.324 26.2461 115.793 26.8906C116.262 27.5286 116.988 27.8477 117.971 27.8477C118.889 27.8477 119.621 27.5449 120.168 26.9395C120.48 26.5879 120.702 26.181 120.832 25.7188H122.561C122.515 26.1029 122.362 26.5326 122.102 27.0078C121.848 27.4766 121.561 27.8607 121.242 28.1602C120.708 28.681 120.048 29.0326 119.26 29.2148C118.837 29.319 118.358 29.3711 117.824 29.3711C116.522 29.3711 115.419 28.8991 114.514 27.9551C113.609 27.0046 113.156 25.6764 113.156 23.9707C113.156 22.291 113.612 20.9271 114.523 19.8789C115.435 18.8307 116.626 18.3066 118.098 18.3066ZM120.9 22.9355C120.829 22.1738 120.663 21.5651 120.402 21.1094C119.921 20.263 119.117 19.8398 117.99 19.8398C117.183 19.8398 116.506 20.1328 115.959 20.7188C115.412 21.2982 115.122 22.0371 115.09 22.9355H120.9ZM130.793 15.6211H132.57V18.541H134.24V19.9766H132.57V26.8027C132.57 27.1673 132.694 27.4115 132.941 27.5352C133.078 27.6068 133.306 27.6426 133.625 27.6426C133.71 27.6426 133.801 27.6426 133.898 27.6426C133.996 27.6361 134.11 27.6263 134.24 27.6133V29C134.038 29.0586 133.827 29.1009 133.605 29.127C133.391 29.153 133.156 29.166 132.902 29.166C132.082 29.166 131.525 28.9577 131.232 28.541C130.939 28.1178 130.793 27.571 130.793 26.9004V19.9766H129.377V18.541H130.793V15.6211ZM137.355 26.2168C137.355 26.7246 137.541 27.125 137.912 27.418C138.283 27.7109 138.723 27.8574 139.23 27.8574C139.849 27.8574 140.448 27.7142 141.027 27.4277C142.004 26.9525 142.492 26.1745 142.492 25.0938V23.6777C142.277 23.8145 142.001 23.9284 141.662 24.0195C141.324 24.1107 140.992 24.1758 140.666 24.2148L139.602 24.3516C138.964 24.4362 138.485 24.5697 138.166 24.752C137.626 25.0579 137.355 25.5462 137.355 26.2168ZM141.613 22.6621C142.017 22.61 142.287 22.4408 142.424 22.1543C142.502 21.998 142.541 21.7734 142.541 21.4805C142.541 20.8815 142.326 20.4486 141.896 20.1816C141.473 19.9082 140.865 19.7715 140.07 19.7715C139.152 19.7715 138.501 20.0189 138.117 20.5137C137.902 20.7871 137.762 21.194 137.697 21.7344H136.057C136.089 20.4453 136.506 19.5501 137.307 19.0488C138.114 18.541 139.048 18.2871 140.109 18.2871C141.34 18.2871 142.339 18.5215 143.107 18.9902C143.869 19.459 144.25 20.1882 144.25 21.1777V27.2031C144.25 27.3854 144.286 27.5319 144.357 27.6426C144.436 27.7533 144.595 27.8086 144.836 27.8086C144.914 27.8086 145.002 27.8053 145.1 27.7988C145.197 27.7858 145.301 27.7695 145.412 27.75V29.0488C145.139 29.127 144.93 29.1758 144.787 29.1953C144.644 29.2148 144.449 29.2246 144.201 29.2246C143.596 29.2246 143.156 29.0098 142.883 28.5801C142.74 28.3522 142.639 28.0299 142.58 27.6133C142.222 28.082 141.708 28.4889 141.037 28.834C140.367 29.179 139.628 29.3516 138.82 29.3516C137.85 29.3516 137.056 29.0586 136.438 28.4727C135.826 27.8802 135.52 27.1413 135.52 26.2559C135.52 25.2858 135.822 24.5339 136.428 24C137.033 23.4661 137.827 23.1374 138.811 23.0137L141.613 22.6621ZM150.832 18.3555C151.652 18.3555 152.368 18.5573 152.98 18.9609C153.312 19.1888 153.651 19.5208 153.996 19.957V18.6387H155.617V28.1504C155.617 29.4785 155.422 30.5267 155.031 31.2949C154.302 32.7142 152.925 33.4238 150.9 33.4238C149.774 33.4238 148.827 33.1699 148.059 32.6621C147.29 32.1608 146.861 31.373 146.77 30.2988H148.557C148.641 30.7676 148.811 31.1289 149.064 31.3828C149.462 31.7734 150.087 31.9688 150.939 31.9688C152.287 31.9688 153.169 31.4935 153.586 30.543C153.833 29.9831 153.947 28.9837 153.928 27.5449C153.576 28.0788 153.153 28.4759 152.658 28.7363C152.163 28.9967 151.509 29.127 150.695 29.127C149.562 29.127 148.57 28.7266 147.717 27.9258C146.87 27.1185 146.447 25.7871 146.447 23.9316C146.447 22.1803 146.874 20.8132 147.727 19.8301C148.586 18.847 149.621 18.3555 150.832 18.3555ZM153.996 23.7266C153.996 22.431 153.729 21.4707 153.195 20.8457C152.661 20.2207 151.981 19.9082 151.154 19.9082C149.917 19.9082 149.071 20.4876 148.615 21.6465C148.374 22.265 148.254 23.0755 148.254 24.0781C148.254 25.2565 148.492 26.1549 148.967 26.7734C149.449 27.3854 150.093 27.6914 150.9 27.6914C152.163 27.6914 153.052 27.1217 153.566 25.9824C153.853 25.3379 153.996 24.5859 153.996 23.7266Z" fill="black"/>
</svg>
