<svg width="187" height="42" viewBox="0 0 187 42" fill="none" xmlns="http://www.w3.org/2000/svg">
<path d="M0 0H187V42H7C3.13401 42 0 38.866 0 35V0Z" fill="#D9D9D9"/>
<path d="M0 29.4894H19.9467V42H7C3.13401 42 0 38.866 0 35V29.4894Z" fill="#C2B8B8"/>
<path d="M35.6475 19.6141C35.6475 18.8654 35.4489 18.3316 35.0518 18.0125C34.6611 17.6935 34.111 17.534 33.4014 17.534H30.5986V21.7723H33.4014C34.111 21.7723 34.6611 21.5998 35.0518 21.2547C35.4489 20.9097 35.6475 20.3628 35.6475 19.6141ZM38.626 19.5946C38.626 21.2938 38.1963 22.495 37.3369 23.1981C36.4775 23.9012 35.2503 24.2528 33.6553 24.2528H30.5986V29.4286H27.6104V15.034H33.8799C35.3252 15.034 36.4775 15.4051 37.3369 16.1473C38.1963 16.8895 38.626 18.0386 38.626 19.5946ZM44.8565 20.7957C44.2119 20.7957 43.7106 20.9976 43.3525 21.4012C43.001 21.8049 42.7796 22.3517 42.6885 23.0418H47.0147C46.9691 22.3062 46.7445 21.7495 46.3408 21.3719C45.9437 20.9878 45.4489 20.7957 44.8565 20.7957ZM44.8565 18.5008C45.7419 18.5008 46.5394 18.6668 47.249 18.9989C47.9587 19.3309 48.5446 19.855 49.0068 20.5711C49.4235 21.2026 49.6937 21.9351 49.8174 22.7684C49.889 23.2567 49.9183 23.9598 49.9053 24.8778H42.6201C42.6592 25.9455 42.9945 26.6942 43.626 27.1239C44.0101 27.3908 44.4723 27.5243 45.0127 27.5243C45.5856 27.5243 46.0511 27.3615 46.4092 27.036C46.6045 26.8602 46.777 26.6161 46.9268 26.3036H49.7686C49.6969 26.9351 49.3682 27.5763 48.7822 28.2274C47.8708 29.2625 46.5947 29.7801 44.9541 29.7801C43.5999 29.7801 42.4053 29.3439 41.3701 28.4715C40.335 27.5991 39.8174 26.1799 39.8174 24.2137C39.8174 22.3713 40.2829 20.9585 41.2139 19.9754C42.1514 18.9924 43.3656 18.5008 44.8565 18.5008ZM57.5713 18.5301C57.6234 18.5301 57.6657 18.5334 57.6982 18.5399C57.7373 18.5399 57.8187 18.5431 57.9424 18.5497V21.4012C57.7666 21.3817 57.6104 21.3687 57.4736 21.3622C57.3369 21.3556 57.2262 21.3524 57.1416 21.3524C56.0218 21.3524 55.2699 21.717 54.8857 22.4461C54.6709 22.8563 54.5635 23.4878 54.5635 24.3407V29.4286H51.7607V18.784H54.417V20.6395C54.8467 19.9299 55.221 19.4448 55.54 19.1844C56.0609 18.7482 56.738 18.5301 57.5713 18.5301ZM61.751 26.0301C61.8096 26.5249 61.9365 26.8765 62.1318 27.0848C62.4769 27.4559 63.1149 27.6414 64.0459 27.6414C64.5928 27.6414 65.0257 27.5601 65.3447 27.3973C65.6703 27.2345 65.833 26.9904 65.833 26.6649C65.833 26.3524 65.7028 26.1148 65.4424 25.952C65.182 25.7892 64.2152 25.5093 62.542 25.1122C61.3376 24.8127 60.488 24.4383 59.9932 23.9891C59.4984 23.5464 59.251 22.9084 59.251 22.075C59.251 21.092 59.6351 20.2489 60.4033 19.5457C61.1781 18.8361 62.2653 18.4813 63.665 18.4813C64.9932 18.4813 66.0739 18.7482 66.9072 19.2821C67.7471 19.8094 68.2288 20.7241 68.3525 22.0262H65.5693C65.5303 21.6681 65.4294 21.3849 65.2666 21.1766C64.9606 20.799 64.4398 20.6102 63.7041 20.6102C63.0986 20.6102 62.6657 20.7046 62.4053 20.8934C62.1514 21.0822 62.0244 21.3036 62.0244 21.5575C62.0244 21.8765 62.1611 22.1076 62.4346 22.2508C62.708 22.4006 63.6748 22.6577 65.335 23.0223C66.4417 23.2827 67.2718 23.6766 67.8252 24.2039C68.3721 24.7378 68.6455 25.4051 68.6455 26.2059C68.6455 27.2606 68.2516 28.1232 67.4639 28.7938C66.6826 29.4579 65.4717 29.7899 63.8311 29.7899C62.1579 29.7899 60.9209 29.4383 60.1201 28.7352C59.3259 28.0256 58.9287 27.1239 58.9287 26.0301H61.751ZM75.4912 27.4657C76.305 27.4657 76.93 27.176 77.3662 26.5965C77.8024 26.0171 78.0205 25.1935 78.0205 24.1258C78.0205 23.0581 77.8024 22.2378 77.3662 21.6649C76.93 21.0855 76.305 20.7957 75.4912 20.7957C74.6774 20.7957 74.0492 21.0855 73.6065 21.6649C73.1703 22.2378 72.9522 23.0581 72.9522 24.1258C72.9522 25.1935 73.1703 26.0171 73.6065 26.5965C74.0492 27.176 74.6774 27.4657 75.4912 27.4657ZM80.9404 24.1258C80.9404 25.6883 80.4912 27.0262 79.5928 28.1395C78.6943 29.2463 77.3304 29.7997 75.501 29.7997C73.6716 29.7997 72.3076 29.2463 71.4092 28.1395C70.5107 27.0262 70.0615 25.6883 70.0615 24.1258C70.0615 22.5894 70.5107 21.258 71.4092 20.1317C72.3076 19.0054 73.6716 18.4422 75.501 18.4422C77.3304 18.4422 78.6943 19.0054 79.5928 20.1317C80.4912 21.258 80.9404 22.5894 80.9404 24.1258ZM88.8408 18.5301C89.9411 18.5301 90.8395 18.8198 91.5361 19.3993C92.2393 19.9722 92.5908 20.926 92.5908 22.2606V29.4286H89.7393V22.9539C89.7393 22.3941 89.6644 21.9644 89.5147 21.6649C89.2412 21.118 88.7204 20.8446 87.9522 20.8446C87.0081 20.8446 86.3604 21.245 86.0088 22.0457C85.8265 22.4689 85.7354 23.0093 85.7354 23.6668V29.4286H82.9619V18.8036H85.6475V20.3563C86.0055 19.8094 86.3441 19.4155 86.6631 19.1747C87.236 18.745 87.9619 18.5301 88.8408 18.5301ZM101.038 24.2528C100.862 24.3635 100.683 24.4546 100.501 24.5262C100.325 24.5913 100.081 24.6532 99.7686 24.7118L99.1436 24.8289C98.5576 24.9331 98.1377 25.0601 97.8838 25.2098C97.4541 25.4637 97.2393 25.8576 97.2393 26.3914C97.2393 26.8667 97.3695 27.2118 97.6299 27.4266C97.8968 27.6349 98.2191 27.7391 98.5967 27.7391C99.1956 27.7391 99.7458 27.5633 100.247 27.2118C100.755 26.8602 101.019 26.2189 101.038 25.2879V24.2528ZM99.3486 22.9539C99.863 22.8888 100.231 22.8075 100.452 22.7098C100.849 22.5405 101.048 22.2769 101.048 21.9188C101.048 21.4826 100.895 21.1831 100.589 21.0204C100.289 20.8511 99.8467 20.7664 99.2607 20.7664C98.6032 20.7664 98.1377 20.9292 97.8643 21.2547C97.669 21.4956 97.5387 21.8211 97.4736 22.2313H94.7881C94.8467 21.3003 95.1071 20.5353 95.5693 19.9364C96.305 18.9989 97.568 18.5301 99.3584 18.5301C100.524 18.5301 101.559 18.7612 102.464 19.2235C103.369 19.6857 103.821 20.5581 103.821 21.8407V26.7235C103.821 27.062 103.828 27.4722 103.841 27.9539C103.86 28.3185 103.916 28.5659 104.007 28.6961C104.098 28.8263 104.235 28.9338 104.417 29.0184V29.4286H101.39C101.305 29.2137 101.246 29.0119 101.214 28.8231C101.181 28.6343 101.155 28.4194 101.136 28.1786C100.752 28.5952 100.309 28.95 99.8076 29.243C99.2087 29.5881 98.5316 29.7606 97.7764 29.7606C96.8128 29.7606 96.0153 29.4872 95.3838 28.9403C94.7588 28.3869 94.4463 27.6056 94.4463 26.5965C94.4463 25.2879 94.9509 24.3407 95.96 23.7547C96.5134 23.4357 97.3272 23.2079 98.4014 23.0711L99.3486 22.9539ZM109.144 29.4286H106.36V15.034H109.144V29.4286ZM114.729 17.5145H111.907V14.9461H114.729V17.5145ZM111.907 18.784H114.729V29.4286H111.907V18.784ZM116.829 21.0497V18.784H125.462V21.0985L120.062 27.1434H125.647V29.4286H116.458V27.2606L121.917 21.0497H116.829ZM131.634 20.7957C130.989 20.7957 130.488 20.9976 130.13 21.4012C129.778 21.8049 129.557 22.3517 129.466 23.0418H133.792C133.746 22.3062 133.522 21.7495 133.118 21.3719C132.721 20.9878 132.226 20.7957 131.634 20.7957ZM131.634 18.5008C132.519 18.5008 133.317 18.6668 134.026 18.9989C134.736 19.3309 135.322 19.855 135.784 20.5711C136.201 21.2026 136.471 21.9351 136.595 22.7684C136.666 23.2567 136.696 23.9598 136.683 24.8778H129.397C129.437 25.9455 129.772 26.6942 130.403 27.1239C130.787 27.3908 131.25 27.5243 131.79 27.5243C132.363 27.5243 132.828 27.3615 133.187 27.036C133.382 26.8602 133.554 26.6161 133.704 26.3036H136.546C136.474 26.9351 136.146 27.5763 135.56 28.2274C134.648 29.2625 133.372 29.7801 131.731 29.7801C130.377 29.7801 129.183 29.3439 128.147 28.4715C127.112 27.5991 126.595 26.1799 126.595 24.2137C126.595 22.3713 127.06 20.9585 127.991 19.9754C128.929 18.9924 130.143 18.5008 131.634 18.5008ZM143.04 20.8641V18.8817H144.524V15.9129H147.278V18.8817H149.007V20.8641H147.278V26.4891C147.278 26.9253 147.334 27.1987 147.444 27.3094C147.555 27.4136 147.894 27.4657 148.46 27.4657C148.545 27.4657 148.632 27.4657 148.724 27.4657C148.821 27.4592 148.916 27.4526 149.007 27.4461V29.5262L147.688 29.575C146.373 29.6206 145.475 29.3928 144.993 28.8914C144.681 28.5724 144.524 28.0809 144.524 27.4168V20.8641H143.04ZM156.663 24.2528C156.487 24.3635 156.308 24.4546 156.126 24.5262C155.95 24.5913 155.706 24.6532 155.394 24.7118L154.769 24.8289C154.183 24.9331 153.763 25.0601 153.509 25.2098C153.079 25.4637 152.864 25.8576 152.864 26.3914C152.864 26.8667 152.994 27.2118 153.255 27.4266C153.522 27.6349 153.844 27.7391 154.222 27.7391C154.821 27.7391 155.371 27.5633 155.872 27.2118C156.38 26.8602 156.644 26.2189 156.663 25.2879V24.2528ZM154.974 22.9539C155.488 22.8888 155.856 22.8075 156.077 22.7098C156.474 22.5405 156.673 22.2769 156.673 21.9188C156.673 21.4826 156.52 21.1831 156.214 21.0204C155.914 20.8511 155.472 20.7664 154.886 20.7664C154.228 20.7664 153.763 20.9292 153.489 21.2547C153.294 21.4956 153.164 21.8211 153.099 22.2313H150.413C150.472 21.3003 150.732 20.5353 151.194 19.9364C151.93 18.9989 153.193 18.5301 154.983 18.5301C156.149 18.5301 157.184 18.7612 158.089 19.2235C158.994 19.6857 159.446 20.5581 159.446 21.8407V26.7235C159.446 27.062 159.453 27.4722 159.466 27.9539C159.485 28.3185 159.541 28.5659 159.632 28.6961C159.723 28.8263 159.86 28.9338 160.042 29.0184V29.4286H157.015C156.93 29.2137 156.871 29.0119 156.839 28.8231C156.806 28.6343 156.78 28.4194 156.761 28.1786C156.377 28.5952 155.934 28.95 155.433 29.243C154.834 29.5881 154.157 29.7606 153.401 29.7606C152.438 29.7606 151.64 29.4872 151.009 28.9403C150.384 28.3869 150.071 27.6056 150.071 26.5965C150.071 25.2879 150.576 24.3407 151.585 23.7547C152.138 23.4357 152.952 23.2079 154.026 23.0711L154.974 22.9539ZM166.497 27.1434C167.148 27.1434 167.698 26.8993 168.147 26.411C168.597 25.9162 168.821 25.1317 168.821 24.0575C168.821 23.0484 168.606 22.2801 168.177 21.7528C167.754 21.2254 167.184 20.9618 166.468 20.9618C165.491 20.9618 164.817 21.4207 164.446 22.3387C164.251 22.827 164.153 23.4292 164.153 24.1454C164.153 24.7638 164.257 25.314 164.466 25.7957C164.843 26.6942 165.521 27.1434 166.497 27.1434ZM165.804 18.5301C166.338 18.5301 166.803 18.6115 167.2 18.7743C167.877 19.0542 168.424 19.5685 168.841 20.3172V18.784H171.546V28.8817C171.546 30.2554 171.315 31.2905 170.853 31.9872C170.058 33.1851 168.535 33.784 166.282 33.784C164.922 33.784 163.812 33.5171 162.952 32.9832C162.093 32.4494 161.618 31.6519 161.526 30.5907H164.554C164.632 30.9162 164.759 31.1506 164.935 31.2938C165.234 31.5477 165.739 31.6747 166.448 31.6747C167.451 31.6747 168.121 31.3394 168.46 30.6688C168.681 30.2391 168.792 29.5164 168.792 28.5008V27.8172C168.525 28.273 168.239 28.6148 167.933 28.8426C167.379 29.2658 166.66 29.4774 165.774 29.4774C164.407 29.4774 163.313 28.9989 162.493 28.0418C161.679 27.0783 161.272 25.7762 161.272 24.1356C161.272 22.5536 161.666 21.2254 162.454 20.1512C163.242 19.0705 164.358 18.5301 165.804 18.5301Z" fill="black"/>
</svg>
